# xmcd
#
# Track frame offsets:
#	150
#	20161
#	43049
#	57967
#	73407
#	94776
#	112294
#	129204
#	151072
#	164765
#	179809
#	197462
#
# Disc length: 2885 seconds
#
# Revision: 1
# Processed by: cddbd v1.5.2PL0 Copyright (c) Steve Scherf et al.
# Submitted via: audiograbber 1.83.01
#
DISCID=b10b430c
DTITLE=XAVIER NAIDOO - Alles Kann Besser Werden -2oo9- ~Hell-1~
DYEAR=2009
DGENRE=unbekanntes Genre
TTITLE0=Alles Kann Besser Werden 
TTITLE1=Mut Zur Veränderung
TTITLE2=Sterne
TTITLE3=Alles Lebt
TTITLE4=Der Kreis
TTITLE5=Ich Brauche Dich
TTITLE6=Meine Muse
TTITLE7=Shine Like A Star
TTITLE8=Wild Vor Wut
TTITLE9=Königin
TTITLE10=Sie Kommt Zurück
TTITLE11=Bitte Hör Nicht Auf Zu Träumen
EXTD=
EXTT0=
EXTT1=
EXTT2=
EXTT3=
EXTT4=
EXTT5=
EXTT6=
EXTT7=
EXTT8=
EXTT9=
EXTT10=
EXTT11=
PLAYORDER=
